<svg width="21" height="22" viewBox="0 0 21 22" fill="none" xmlns="http://www.w3.org/2000/svg">
<path d="M18.1107 0.585282C17.9562 0.578251 17.8002 0.587463 17.6442 0.613765L11.4294 1.67171C10.9186 1.75921 10.5463 2.19085 10.5463 2.6971V8.91658C10.5463 9.49158 11.0241 9.95825 11.6127 9.95825H19.0771C19.6657 9.95825 20.1435 9.49158 20.1435 8.91658V2.66658C20.1435 2.04991 19.8663 1.4684 19.3833 1.07153C19.021 0.773873 18.5744 0.606376 18.1107 0.585282ZM7.40561 2.38378C7.32683 2.37977 7.2456 2.38409 7.16402 2.39803L2.71536 3.15486C1.69486 3.32882 0.949219 4.19518 0.949219 5.20768V8.91658C0.949219 9.49158 1.42694 9.95825 2.01557 9.95825H7.3473C7.93592 9.95825 8.41365 9.49158 8.41365 8.91658V3.42342C8.41365 2.8574 7.95711 2.41187 7.40561 2.38378ZM2.01557 12.0416C1.42694 12.0416 0.949219 12.5082 0.949219 13.0832V16.7922C0.949219 17.8047 1.6938 18.671 2.71536 18.845L7.16402 19.6018C7.81662 19.7122 8.41365 19.2233 8.41365 18.5764V13.0832C8.41365 12.5082 7.93592 12.0416 7.3473 12.0416H2.01557ZM11.6127 12.0416C11.0241 12.0416 10.5463 12.5082 10.5463 13.0832V19.3027C10.5463 19.809 10.9186 20.2417 11.4294 20.3281L17.6442 21.3861C17.7668 21.4069 17.8902 21.4186 18.0128 21.4186C18.5108 21.4186 18.9951 21.2471 19.3833 20.9283C19.8663 20.5304 20.1435 19.9489 20.1435 19.3333V13.0832C20.1435 12.5082 19.6657 12.0416 19.0771 12.0416H11.6127Z" fill="#76808C"/>
</svg>
