<svg width="25" height="24" viewBox="0 0 25 24" fill="none" xmlns="http://www.w3.org/2000/svg">
<g clip-path="url(#clip0_23_736)">
<path d="M20.1602 3.98992C17.5202 2.18992 14.2602 3.02992 12.5002 5.08992C10.7402 3.02992 7.48021 2.17992 4.84021 3.98992C3.44021 4.94992 2.56021 6.56992 2.50021 8.27992C2.36021 12.1599 5.80021 15.2699 11.0502 20.0399L11.1502 20.1299C11.9102 20.8199 13.0802 20.8199 13.8402 20.1199L13.9502 20.0199C19.2002 15.2599 22.6302 12.1499 22.5002 8.26992C22.4402 6.56992 21.5602 4.94992 20.1602 3.98992ZM12.6002 18.5499L12.5002 18.6499L12.4002 18.5499C7.64021 14.2399 4.50021 11.3899 4.50021 8.49992C4.50021 6.49992 6.00021 4.99992 8.00021 4.99992C9.54021 4.99992 11.0402 5.98992 11.5702 7.35992H13.4402C13.9602 5.98992 15.4602 4.99992 17.0002 4.99992C19.0002 4.99992 20.5002 6.49992 20.5002 8.49992C20.5002 11.3899 17.3602 14.2399 12.6002 18.5499Z" fill="#F3F3F3"/>
</g>
<defs>
<clipPath id="clip0_23_736">
<rect width="24" height="24" fill="white" transform="translate(0.5)"/>
</clipPath>
</defs>
</svg>
