<svg width="25" height="25" viewBox="0 0 25 25" fill="none" xmlns="http://www.w3.org/2000/svg">
<g clip-path="url(#clip0_20_103)">
<path d="M12.5002 22.9167C13.6461 22.9167 14.5836 21.9792 14.5836 20.8334H10.4169C10.4169 21.9792 11.344 22.9167 12.5002 22.9167ZM18.7502 16.6667V11.4584C18.7502 8.2605 17.0419 5.58341 14.0627 4.87508V4.16675C14.0627 3.30216 13.3648 2.60425 12.5002 2.60425C11.6357 2.60425 10.9377 3.30216 10.9377 4.16675V4.87508C7.94815 5.58341 6.25024 8.25008 6.25024 11.4584V16.6667L4.90649 18.0105C4.25024 18.6667 4.70857 19.7917 5.63565 19.7917H19.3544C20.2815 19.7917 20.7502 18.6667 20.094 18.0105L18.7502 16.6667Z" fill="#76808C"/>
</g>
<defs>
<clipPath id="clip0_20_103">
<rect width="25" height="25" fill="white"/>
</clipPath>
</defs>
</svg>
