<svg width="25" height="25" viewBox="0 0 25 25" fill="none" xmlns="http://www.w3.org/2000/svg">
<g clip-path="url(#clip0_20_93)">
<path d="M16.667 11.4583C18.3962 11.4583 19.7816 10.0624 19.7816 8.33325C19.7816 6.60409 18.3962 5.20825 16.667 5.20825C14.9378 5.20825 13.542 6.60409 13.542 8.33325C13.542 10.0624 14.9378 11.4583 16.667 11.4583ZM8.33366 11.4583C10.0628 11.4583 11.4482 10.0624 11.4482 8.33325C11.4482 6.60409 10.0628 5.20825 8.33366 5.20825C6.60449 5.20825 5.20866 6.60409 5.20866 8.33325C5.20866 10.0624 6.60449 11.4583 8.33366 11.4583ZM8.33366 13.5416C5.90658 13.5416 1.04199 14.7603 1.04199 17.1874V18.7499C1.04199 19.3228 1.51074 19.7916 2.08366 19.7916H14.5837C15.1566 19.7916 15.6253 19.3228 15.6253 18.7499V17.1874C15.6253 14.7603 10.7607 13.5416 8.33366 13.5416ZM16.667 13.5416C16.3649 13.5416 16.0212 13.5624 15.6566 13.5937C15.6774 13.6041 15.6878 13.6249 15.6982 13.6353C16.8857 14.4999 17.7087 15.6562 17.7087 17.1874V18.7499C17.7087 19.1145 17.6357 19.4687 17.5212 19.7916H22.917C23.4899 19.7916 23.9587 19.3228 23.9587 18.7499V17.1874C23.9587 14.7603 19.0941 13.5416 16.667 13.5416Z" fill="#76808C"/>
</g>
<defs>
<clipPath id="clip0_20_93">
<rect width="25" height="25" fill="white"/>
</clipPath>
</defs>
</svg>
