<svg width="13" height="12" viewBox="0 0 13 12" fill="none" xmlns="http://www.w3.org/2000/svg">
<path d="M11.3333 6.66667H7.16667V10.8333C7.16667 11.2917 6.79167 11.6667 6.33333 11.6667C5.875 11.6667 5.5 11.2917 5.5 10.8333V6.66667H1.33333C0.875 6.66667 0.5 6.29167 0.5 5.83333C0.5 5.375 0.875 5 1.33333 5H5.5V0.833333C5.5 0.375 5.875 0 6.33333 0C6.79167 0 7.16667 0.375 7.16667 0.833333V5H11.3333C11.7917 5 12.1667 5.375 12.1667 5.83333C12.1667 6.29167 11.7917 6.66667 11.3333 6.66667Z" fill="#76808C"/>
</svg>
